<svg width="116.000000" height="116.000000" viewBox="0 0 116 116" fill="none" xmlns="http://www.w3.org/2000/svg" xmlns:xlink="http://www.w3.org/1999/xlink">
	<desc>
			Created with Pixso.
	</desc>
	<defs>
		<clipPath id="clip4_1787">
			<rect id="favicon" width="116.000000" height="116.000000" fill="white" fill-opacity="0"/>
		</clipPath>
	</defs>
	<rect id="favicon" width="116.000000" height="116.000000" fill="#C0E1E6" fill-opacity="1.000000"/>
	<g clip-path="url(#clip4_1787)">
		<path id="path" d="M5.3 35.26C2.45 35.26 0.02 34.27 -1.99 32.29C-4 30.31 -5 27.93 -5 25.13C-5.01 22.33 -4 19.94 -1.99 17.96C0.02 15.98 2.45 15 5.3 15C8.14 15 10.57 15.99 12.58 17.96C14.6 19.94 15.6 22.33 15.6 25.13C15.6 27.93 14.6 30.31 12.58 32.29C10.57 34.27 8.14 35.26 5.3 35.26Z" fill="#000000" fill-opacity="1.000000" fill-rule="nonzero"/>
		<path id="path" d="M49.87 35.26C47.02 35.26 44.6 34.27 42.58 32.29C40.57 30.31 39.57 27.93 39.57 25.13C39.57 22.33 40.57 19.94 42.58 17.96C44.6 15.98 47.02 15 49.87 15C52.71 15 55.14 15.99 57.15 17.96C59.17 19.94 60.17 22.33 60.17 25.13C60.17 27.93 59.17 30.31 57.15 32.29C55.14 34.27 52.71 35.26 49.87 35.26Z" fill="#000000" fill-opacity="1.000000" fill-rule="nonzero"/>
		<path id="path" d="M94.52 35.26C91.67 35.26 89.24 34.27 87.23 32.29C85.22 30.31 84.21 27.92 84.21 25.13C84.21 22.33 85.22 19.94 87.23 17.96C89.24 15.98 91.67 15 94.52 15C97.36 15 99.79 15.98 101.8 17.96C103.81 19.94 104.82 22.33 104.82 25.13C104.84 27.93 103.84 30.33 101.82 32.31C99.81 34.3 97.37 35.28 94.52 35.26Z" fill="#000000" fill-opacity="1.000000" fill-rule="nonzero"/>
		<path id="path" d="M139.16 35.26C136.32 35.26 133.89 34.27 131.88 32.29C129.87 30.31 128.86 27.92 128.86 25.13C128.86 22.33 129.87 19.94 131.88 17.96C133.89 15.98 136.32 15 139.16 15C142.01 15 144.44 15.98 146.45 17.96C148.46 19.94 149.47 22.33 149.47 25.13C149.49 27.93 148.49 30.33 146.47 32.31C144.45 34.3 142.02 35.28 139.16 35.26Z" fill="#000000" fill-opacity="1.000000" fill-rule="nonzero"/>
		<path id="path" d="M183.73 35.26C180.89 35.26 178.46 34.27 176.45 32.29C174.44 30.31 173.43 27.93 173.43 25.13C173.43 22.33 174.44 19.94 176.45 17.96C178.46 15.98 180.89 15 183.73 15C186.58 15 189.01 15.99 191.02 17.96C193.03 19.94 194.04 22.33 194.04 25.13C194.04 27.93 193.03 30.31 191.02 32.29C189.01 34.27 186.58 35.26 183.73 35.26Z" fill="#000000" fill-opacity="1.000000" fill-rule="nonzero"/>
		<path id="path" d="M228.38 35.26C225.54 35.26 223.11 34.27 221.1 32.29C219.09 30.31 218.08 27.93 218.08 25.13C218.08 22.33 219.09 19.94 221.1 17.96C223.11 15.98 225.54 15 228.38 15C231.23 15 233.66 15.99 235.67 17.96C237.68 19.94 238.69 22.33 238.69 25.13C238.71 27.93 237.71 30.33 235.69 32.31C233.67 34.3 231.24 35.28 228.38 35.26Z" fill="#000000" fill-opacity="1.000000" fill-rule="nonzero"/>
		<path id="path" d="M273.03 35.26C270.18 35.26 267.76 34.27 265.74 32.29C263.73 30.31 262.73 27.93 262.73 25.13C262.73 22.33 263.73 19.94 265.74 17.96C267.76 15.98 270.18 15 273.03 15C275.87 15 278.3 15.99 280.31 17.96C282.33 19.94 283.33 22.33 283.33 25.13C283.35 27.93 282.35 30.33 280.34 32.31C278.32 34.3 275.88 35.28 273.03 35.26Z" fill="#000000" fill-opacity="1.000000" fill-rule="nonzero"/>
		<path id="path" d="M184.35 101.83L49.26 101.83C43.32 101.31 40.35 98.12 40.35 92.26C40.35 86.4 43.32 83.21 49.26 82.69L184.35 82.69C190.28 83.21 193.25 86.4 193.25 92.26C193.25 98.12 190.28 101.31 184.35 101.83Z" fill="#000000" fill-opacity="1.000000" fill-rule="nonzero"/>
		<path id="path" d="M5.3 102.43C2.45 102.43 0.02 101.44 -1.99 99.46C-4 97.48 -5 95.09 -5 92.3C-5.01 89.5 -4 87.11 -1.99 85.13C0.02 83.15 2.45 82.17 5.3 82.17C8.14 82.17 10.57 83.15 12.58 85.13C14.6 87.11 15.6 89.5 15.6 92.3C15.6 95.1 14.6 97.48 12.58 99.46C10.57 101.44 8.14 102.43 5.3 102.43Z" fill="#000000" fill-opacity="1.000000" fill-rule="nonzero"/>
		<path id="path" d="M228.38 102.43C225.54 102.43 223.11 101.44 221.1 99.46C219.09 97.48 218.08 95.09 218.08 92.3C218.08 89.5 219.09 87.11 221.1 85.13C223.11 83.15 225.54 82.17 228.38 82.17C231.23 82.17 233.66 83.15 235.67 85.13C237.68 87.11 238.69 89.5 238.69 92.3C238.71 95.1 237.71 97.5 235.69 99.48C233.67 101.47 231.24 102.45 228.38 102.43Z" fill="#000000" fill-opacity="1.000000" fill-rule="nonzero"/>
		<path id="path" d="M273.03 102.43C270.18 102.43 267.76 101.44 265.74 99.46C263.73 97.48 262.73 95.09 262.73 92.3C262.73 89.5 263.73 87.11 265.74 85.13C267.76 83.15 270.18 82.17 273.03 82.17C275.87 82.17 278.3 83.15 280.31 85.13C282.33 87.11 283.33 89.5 283.33 92.3C283.35 95.1 282.35 97.5 280.34 99.48C278.32 101.47 275.88 102.45 273.03 102.43Z" fill="#000000" fill-opacity="1.000000" fill-rule="nonzero"/>
		<path id="path" d="M27.74 68.88C24.89 68.88 22.46 67.89 20.45 65.91C18.44 63.94 17.43 61.55 17.43 58.75C17.43 55.95 18.44 53.56 20.45 51.59C22.46 49.61 24.89 48.62 27.74 48.62C30.58 48.62 33.01 49.61 35.02 51.59C37.03 53.56 38.04 55.95 38.04 58.75C38.04 61.55 37.03 63.94 35.02 65.91C33.01 67.89 30.58 68.88 27.74 68.88Z" fill="#000000" fill-opacity="1.000000" fill-rule="nonzero"/>
		<path id="path" d="M72.31 68.88C69.46 68.88 67.03 67.89 65.02 65.91C63.01 63.94 62 61.55 62 58.75C62 55.95 63.01 53.56 65.02 51.59C67.03 49.61 69.46 48.62 72.31 48.62C75.15 48.62 77.58 49.61 79.59 51.59C81.6 53.56 82.61 55.95 82.61 58.75C82.59 61.54 81.58 63.92 79.57 65.89C77.56 67.86 75.14 68.86 72.31 68.88Z" fill="#000000" fill-opacity="1.000000" fill-rule="nonzero"/>
		<path id="path" d="M116.96 68.88C114.11 68.88 111.68 67.89 109.67 65.91C107.66 63.94 106.65 61.55 106.65 58.75C106.65 55.95 107.66 53.56 109.67 51.59C111.68 49.61 114.11 48.62 116.96 48.62C119.8 48.62 122.23 49.61 124.24 51.59C126.25 53.56 127.26 55.95 127.26 58.75C127.24 61.54 126.22 63.92 124.22 65.89C122.21 67.86 119.79 68.86 116.96 68.88Z" fill="#000000" fill-opacity="1.000000" fill-rule="nonzero"/>
		<path id="path" d="M161.6 68.88C158.76 68.88 156.33 67.89 154.32 65.91C152.3 63.94 151.3 61.55 151.3 58.75C151.3 55.95 152.3 53.56 154.32 51.59C156.33 49.61 158.76 48.62 161.6 48.62C164.45 48.62 166.88 49.61 168.89 51.59C170.9 53.56 171.91 55.95 171.91 58.75C171.91 61.55 170.9 63.94 168.89 65.91C166.88 67.89 164.45 68.88 161.6 68.88Z" fill="#000000" fill-opacity="1.000000" fill-rule="nonzero"/>
		<path id="path" d="M206.17 68.88C203.33 68.88 200.9 67.89 198.89 65.91C196.88 63.94 195.87 61.55 195.87 58.75C195.87 55.95 196.88 53.56 198.89 51.59C200.9 49.61 203.33 48.62 206.17 48.62C209.02 48.62 211.45 49.61 213.46 51.59C215.47 53.56 216.48 55.95 216.48 58.75C216.46 61.54 215.44 63.92 213.44 65.89C211.43 67.86 209.01 68.86 206.17 68.88Z" fill="#000000" fill-opacity="1.000000" fill-rule="nonzero"/>
		<path id="path" d="M250.82 68.88C247.98 68.88 245.55 67.89 243.53 65.91C241.52 63.94 240.52 61.55 240.52 58.75C240.52 55.95 241.52 53.56 243.53 51.59C245.55 49.61 247.98 48.62 250.82 48.62C253.67 48.62 256.09 49.61 258.1 51.59C260.12 53.56 261.12 55.95 261.12 58.75C261.1 61.54 260.09 63.92 258.08 65.89C256.08 67.86 253.66 68.86 250.82 68.88Z" fill="#000000" fill-opacity="1.000000" fill-rule="nonzero"/>
	</g>
</svg>
